<?xml version="1.0" encoding="utf-8"?>
<!-- Generator: Adobe Illustrator 21.0.2, SVG Export Plug-In . SVG Version: 6.00 Build 0)  -->
<svg version="1.1" id="Layer_1" xmlns="http://www.w3.org/2000/svg" xmlns:xlink="http://www.w3.org/1999/xlink" x="0px" y="0px"
	 viewBox="0 0 262.7 49.1" style="enable-background:new 0 0 262.7 49.1;" xml:space="preserve">
<style type="text/css">
	.st0{fill:#E7E6E6;}
	.st1{fill:#FF6B00;}
	.st2{fill:#FF5000;}
	.st3{fill:#DF4720;}
</style>
<g>
	<g>
		<path class="st0" d="M142.3,24.9v0.4 M120,30.5h5.2v-6.4h2.3l7.5,6.4h7.3L132,21.8l9.1-8.2h-6.3l-7.7,6.2h-2v-6.2H120V30.5z
			 M117.7,19.8c0-2.8-0.2-3.6-1-4.5c-1.2-1.5-2.9-1.8-9.5-1.8c-6.3,0-8.3,0.3-9.6,1.5c-1.3,1.2-1.7,2.8-1.7,7.2
			c0,4.7,0.6,6.5,2.4,7.5c1.5,0.8,2.8,1,7.4,1c8.4,0,9.6-0.2,10.9-1.3c1.1-1,1.2-1.6,1.2-5.4h-5.2c0,1.5-0.3,2-1.3,2.2
			c-0.4,0.1-2.7,0.2-4.8,0.2c-3.1,0-3.8-0.1-4.5-0.7c-0.6-0.5-0.7-1.1-0.7-3.4c0-2.7,0.1-3.5,0.6-4c0.4-0.4,1.2-0.6,2.2-0.6h5.8
			c1.9,0,2.6,0.4,2.6,1.7v0.3H117.7z M79.6,23.9l3.3-6.4l3.4,6.4H79.6z M70.4,30.5h5.7l1.5-3h10.5l1.6,3h5.8l-9.3-16.9h-6.7
			L70.4,30.5z M53.7,23.7h9.1c1.6,0,2,0.4,2,1.5c0,1-0.4,1.4-1.8,1.4h-9.3V23.7z M53.7,20.3v-2.7h8.6c1.5,0,2,0.3,2,1.3
			c0,1.1-0.5,1.4-2,1.4H53.7z M48.6,30.5h16.1c1.8,0,3.1-0.2,3.8-0.7c1.2-0.7,1.8-2.1,1.8-3.9c0-2.5-0.8-3.6-3.1-3.9v-0.1
			c1.8-0.5,2.5-1.5,2.5-3.6c0-1.8-0.4-2.9-1.5-3.7c-0.8-0.6-2.3-1-4-1H48.6V30.5z"/>
		<path class="st1" d="M2.2,3.6v33.6l18,10.1l18-10.4V3.6c0,0-7.5-2-18-2C9.3,1.6,2.2,3.6,2.2,3.6"/>
	</g>
	<polygon class="st2" points="2.3,29.8 2.2,37.2 38.1,36.9 38.1,3.7 	"/>
	<polygon class="st3" points="10.7,37.2 38.1,3.7 38.1,36.9 	"/>
	<g>
		<path class="st1" d="M243.6,17.9h9.1c1,0,1.9,0.2,2.3,0.6c0.6,0.5,0.7,1.1,0.7,3.6c0,2.4-0.1,3.1-0.7,3.6
			c-0.5,0.5-1.1,0.6-2.4,0.6h-9.1V17.9z M238.4,30.5H254c3.3,0,5.2-0.7,6.2-2.1c0.8-1.2,1-2.2,1-7.1c0-2.6-0.2-3.9-0.7-4.9
			c-0.7-1.3-1.8-2.1-3.4-2.5c-0.9-0.3-1.4-0.3-3.5-0.3h-15V30.5z M219.7,30.5h16.8v-4.3h-11.6V13.6h-5.2V30.5z M198.3,30.5H217v-4
			h-13.6v-2.7H216v-3.5h-12.6v-2.7h13.3v-3.9h-18.5V30.5z M189.7,30.5h5.2V13.6h-5.2V30.5z M165.7,30.5h5.2v-6.4h10.8v6.4h5.2V13.6
			h-5.2v6h-10.8v-6h-5.2V30.5z M142.3,25.3c0,2.7,0.3,3.6,1.5,4.4c1.3,0.9,1.7,1,11.5,1c3.3,0,4.9-0.2,6.1-0.7
			c1.7-0.7,2.2-1.9,2.2-4.5c0-2.8-0.7-4.1-2.5-4.8c-1-0.4-1.7-0.5-5.4-0.6l-3.8-0.1c-2.9-0.1-3.4-0.1-3.9-0.3
			c-0.4-0.2-0.5-0.5-0.5-1c0-1,0.7-1.4,2.3-1.4h5.9c1.4,0,2,0.4,2.1,1.3v0.4h5.1v-0.7c0-1.4-0.2-2.4-0.7-3c-0.4-0.6-1.3-1.1-2.1-1.4
			c-1.3-0.4-1.9-0.4-9.2-0.4c-4.7,0-5.7,0.2-7.1,1.1c-1.1,0.8-1.5,1.8-1.5,4.2c0,2.3,0.4,3.4,1.3,4.2c1.1,0.8,2.4,1,6.3,1l4.1,0.1
			c3.7,0,4.3,0.2,4.3,1.5c0,1-0.6,1.4-2.1,1.4h-6.5c-0.9,0-1.2-0.1-1.5-0.2c-0.5-0.2-0.7-0.7-0.7-1.4v-0.3h-5.1"/>
	</g>
</g>
</svg>
